nColumns=19
nRows=120
DataType=double
version=3
OpenSimVersion=4.1
endheader
time	ground_force_1_vx	ground_force_1_vy	ground_force_1_vz	ground_force_1_px	ground_force_1_py	ground_force_1_pz	ground_force_1_mx	ground_force_1_my	ground_force_1_mz	ground_force_2_vx	ground_force_2_vy	ground_force_2_vz	ground_force_2_px	ground_force_2_py	ground_force_2_pz	ground_force_2_mx	ground_force_2_my	ground_force_2_mz
2.55	0	0	0	-0.00253061	0	0.00147507	0	0	0	-238.517	1576.3	-0.247404	1.0121	0	-0.631477	-0	3.64072	-0
2.55833	0	0	0	-0.00253055	0	0.00147512	0	0	0	-182.688	1724.23	-0.150524	0.978754	0	-0.632645	-0	2.36659	-0
2.56667	0	0	0	-0.0025305	0	0.00147518	0	0	0	-127.752	1822.14	-3.80296	0.948052	0	-0.633567	-0	1.21863	-0
2.575	0	0	0	-0.00253044	0	0.00147523	0	0	0	-87.6206	1871.37	-3.81329	0.921604	0	-0.634109	-0	0.252454	-0
2.58333	0	0	0	-0.00253038	0	0.00147529	0	0	0	-58.0626	1875.38	-0.716225	0.896916	0	-0.634676	0	-0.50691	0
2.59167	0	0	0	-0.00253032	0	0.00147534	0	0	0	-25.7172	1841.88	0.843955	0.87014	0	-0.635761	0	-1.01164	0
2.6	0	0	0	-0.00253026	0	0.0014754	0	0	0	10.9507	1783.37	-0.783264	0.841207	0	-0.637079	0	-1.18953	0
2.60833	0	0	0	-0.0025302	0	0.00147546	0	0	0	44.0292	1705.78	-4.53299	0.812807	0	-0.637842	0	-0.976285	0
2.61667	0	0	0	-0.00253014	0	0.00147552	0	0	0	73.6564	1604.34	-10.7455	0.785032	0	-0.637805	0	-0.361291	0
2.625	0	0	0	-0.00253008	0	0.00147558	0	0	0	112.711	1473.58	-20.9075	0.753236	0	-0.637261	-0	0.568106	-0
2.63333	0	0	0	-0.00253002	0	0.00147564	0	0	0	165.435	1314.31	-33.919	0.714292	0	-0.636236	-0	1.61011	-0
2.64167	0	0	0	-0.00252996	0	0.0014757	0	0	0	214.216	1136.09	-45.2485	0.672812	0	-0.634855	-0	2.48755	-0
2.65	0	0	0	-0.00252989	0	0.00147576	0	0	0	236.004	951.007	-50.2589	0.636806	0	-0.633684	-0	2.93946	-0
2.65833	0	0	0	-0.00252983	0	0.00147582	0	0	0	226.117	762.132	-47.6042	0.608427	0	-0.632929	-0	2.82173	-0
2.66667	0	0	0	-0.00252976	0	0.00147589	0	0	0	197.519	569.215	-39.4637	0.582112	0	-0.632271	-0	2.16372	-0
2.675	0	0	0	-0.00252969	0	0.00147595	0	0	0	158.871	383.608	-29.0515	0.553649	0	-0.631639	-0	1.15502	-0
2.68333	0	0	0	-0.00252963	0	0.00147601	0	0	0	112.973	228.245	-18.3537	0.528095	0	-0.630818	-0	0.076498	-0
2.69167	0	0	0	-0.00252956	0	0.00147608	0	0	0	67.2883	119.945	-8.3906	0.523283	0	-0.627456	0	-0.790996	0
2.7	0	0	0	-0.00252949	0	0.00147615	0	0	0	31.4775	58.2469	-0.680349	0.580268	0	-0.618957	0	-1.25063	0
2.70833	0	0	0	-0.00252942	0	0.00147621	0	0	0	10.6355	28.6492	3.17974	0.708758	0	-0.611922	0	-1.24481	0
2.71667	0	0	0	-0.00252935	0	0.00147628	0	0	0	1.9496	14.092	3.49846	0.737615	0	-0.60968	0	-0.86297	0
2.725	0	0	0	-0.00252928	0	0.00147635	0	0	0	0	0	0	-0.00252955	0	0.00147567	0	0	0
2.73333	0	0	0	-0.0025292	0	0.00147642	0	0	0	0	0	0	-0.00252948	0	0.00147574	0	0	0
2.74167	0	0	0	-0.00252913	0	0.00147649	0	0	0	0	0	0	-0.0025294	0	0.00147582	0	0	0
2.75	0	0	0	-0.00252906	0	0.00147656	0	0	0	0	0	0	-0.00252933	0	0.00147589	0	0	0
2.75833	0	0	0	-0.00252898	0	0.00147663	0	0	0	0	0	0	-0.00252925	0	0.00147597	0	0	0
2.76667	0	0	0	-0.00252891	0	0.0014767	0	0	0	0	0	0	-0.00252918	0	0.00147604	0	0	0
2.775	0	0	0	-0.00252883	0	0.00147678	0	0	0	0	0	0	-0.0025291	0	0.00147612	0	0	0
2.78333	0	0	0	-0.00252876	0	0.00147685	0	0	0	0	0	0	-0.00252902	0	0.0014762	0	0	0
2.79167	-3.42195	14.4102	-0.0454057	1.00633	0	-0.620099	-0	5.99511	-0	0	0	0	-0.00252894	0	0.00147628	0	0	0
2.8	-5.5371	40.1641	-4.06877	1.10359	0	-0.635309	-0	8.00858	-0	0	0	0	-0.00252886	0	0.00147636	0	0	0
2.80833	-13.4408	121.261	-8.61957	1.13635	0	-0.640546	-0	9.72367	-0	0	0	0	-0.00252878	0	0.00147643	0	0	0
2.81667	-31.8514	308.383	-10.8239	1.14409	0	-0.646026	-0	10.6514	-0	0	0	0	-0.0025287	0	0.00147652	0	0	0
2.825	-64.5117	609.039	-6.47054	1.13923	0	-0.650942	-0	10.4406	-0	0	0	0	-0.00252862	0	0.0014766	0	0	0
2.83333	-107.241	919.629	8.11483	1.12892	0	-0.654643	-0	9.03381	-0	0	0	0	-0.00252854	0	0.00147668	0	0	0
2.84167	-151.633	1104.02	31.4773	1.11758	0	-0.656916	-0	6.72651	-0	0	0	0	-0.00252846	0	0.00147676	0	0	0
2.85	-200.82	1164.54	55.0923	1.10542	0	-0.657616	-0	4.08343	-0	0	0	0	-0.00252837	0	0.00147684	0	0	0
2.85833	-247.314	1213.71	69.3267	1.08741	0	-0.657364	-0	1.74041	-0	0	0	0	-0.00252829	0	0.00147693	0	0	0
2.86667	-259.909	1320.82	71.6577	1.05881	0	-0.657153	-0	0.193128	-0	0	0	0	-0.00252821	0	0.00147701	0	0	0
2.875	-230.998	1475.15	67.2533	1.0235	0	-0.656997	0	-0.325599	0	0	0	0	-0.00252812	0	0.00147709	0	0	0
2.88333	-186.412	1628.67	62.1437	0.989839	0	-0.656234	-0	0.150434	-0	0	0	0	-0.00252804	0	0.00147718	0	0	0
2.89167	-144.737	1741.03	57.7724	0.959881	0	-0.65471	-0	1.39016	-0	0	0	0	-0.00252795	0	0.00147726	0	0	0
2.9	-105.493	1805.72	52.2084	0.930573	0	-0.652944	-0	3.04643	-0	0	0	0	-0.00252786	0	0.00147735	0	0	0
2.90833	-63.0012	1832.99	44.5989	0.900285	0	-0.651298	-0	4.72419	-0	0	0	0	-0.00252778	0	0.00147743	0	0	0
2.91667	-18.3074	1828.89	36.8116	0.869826	0	-0.649717	-0	6.04433	-0	0	0	0	-0.00252769	0	0.00147752	0	0	0
2.925	22.4461	1795.88	31.3575	0.840135	0	-0.648206	-0	6.71109	-0	0	0	0	-0.0025276	0	0.00147761	0	0	0
2.93333	60.1559	1734.82	29.2924	0.810443	0	-0.647092	-0	6.57155	-0	0	0	0	-0.00252752	0	0.0014777	0	0	0
2.94167	102.478	1641.75	30.4729	0.778308	0	-0.6466	-0	5.6473	-0	0	0	0	-0.00252743	0	0.00147778	0	0	0
2.95	155.077	1513.76	34.5296	0.741794	0	-0.646627	-0	4.12766	-0	0	0	0	-0.00252734	0	0.00147787	0	0	0
2.95833	212.907	1357.64	40.4735	0.70303	0	-0.647137	-0	2.32555	-0	0	0	0	-0.00252725	0	0.00147796	0	0	0
2.96667	258.527	1182.27	46.0378	0.666516	0	-0.648033	-0	0.604033	-0	0	0	0	-0.00252716	0	0.00147805	0	0	0
2.975	278.643	989.727	48.5536	0.633028	0	-0.648756	0	-0.711662	0	0	0	0	-0.00252707	0	0.00147814	0	0	0
2.98333	273.334	783.909	46.573	0.601491	0	-0.648885	0	-1.41189	0	0	0	0	-0.00252698	0	0.00147823	0	0	0
2.99167	247.163	578.446	40.4416	0.572483	0	-0.648519	0	-1.44431	0	0	0	0	-0.00252689	0	0.00147832	0	0	0
3	202.557	390.963	31.608	0.545431	0	-0.647413	0	-0.907274	0	0	0	0	-0.0025268	0	0.00147841	0	0	0
3.00833	144.752	236.79	21.8551	0.518836	0	-0.644744	0	-0.002356	0	0	0	0	-0.00252671	0	0.0014785	0	0	0
3.01667	86.288	125.554	13.1515	0.49724	0	-0.640365	-0	1.03365	-0	0	0	0	-0.00252662	0	0.00147859	0	0	0
3.025	40.8177	56.9453	7.30865	0.49283	0	-0.632388	-0	1.99463	-0	0	0	0	-0.00252652	0	0.00147868	0	0	0
3.03333	15.1332	23.2003	4.81514	0.537458	0	-0.610326	-0	2.74943	-0	0	0	0	-0.00252643	0	0.00147878	0	0	0
3.04167	5.38424	12.5815	4.3059	0.711293	0	-0.59107	-0	3.25202	-0	0	0	0	-0.00252634	0	0.00147887	0	0	0
3.05	1.96228	10.7353	3.95671	0.840768	0	-0.612386	-0	3.51884	-0	0	0	0	-0.00252625	0	0.00147896	0	0	0
3.05833	0	0	0	-0.00252596	0	0.00147954	0	0	0	0	0	0	-0.00252615	0	0.00147905	0	0	0
3.06667	0	0	0	-0.00252586	0	0.00147963	0	0	0	0	0	0	-0.00252606	0	0.00147914	0	0	0
3.075	0	0	0	-0.00252577	0	0.00147972	0	0	0	0	0	0	-0.00252597	0	0.00147924	0	0	0
3.08333	0	0	0	-0.00252568	0	0.00147981	0	0	0	0	0	0	-0.00252588	0	0.00147933	0	0	0
3.09167	0	0	0	-0.00252559	0	0.00147989	0	0	0	0	0	0	-0.00252578	0	0.00147942	0	0	0
3.1	0	0	0	-0.0025255	0	0.00147998	0	0	0	0	0	0	-0.00252569	0	0.00147952	0	0	0
3.10833	0	0	0	-0.00252541	0	0.00148007	0	0	0	0	0	0	-0.00252559	0	0.00147961	0	0	0
3.11667	0	0	0	-0.00252532	0	0.00148016	0	0	0	-4.95855	16.8122	3.66606	1.00381	0	-0.623655	0	-0.471354	0
3.125	0	0	0	-0.00252522	0	0.00148025	0	0	0	-10.2436	44.5302	3.89385	1.10415	0	-0.617894	0	-1.23593	0
3.13333	0	0	0	-0.00252513	0	0.00148034	0	0	0	-22.7957	129.353	3.20653	1.14917	0	-0.619223	0	-1.5554	0
3.14167	0	0	0	-0.00252504	0	0.00148042	0	0	0	-45.2952	325.51	0.518716	1.15844	0	-0.619525	0	-1.21561	0
3.15	0	0	0	-0.00252495	0	0.00148051	0	0	0	-75.9678	645.904	-6.64943	1.15349	0	-0.619635	0	-0.137001	0
3.15833	0	0	0	-0.00252486	0	0.0014806	0	0	0	-111.762	982.513	-20.871	1.14177	0	-0.619517	-0	1.54366	-0
3.16667	0	0	0	-0.00252476	0	0.00148069	0	0	0	-150.185	1171.05	-40.5434	1.12678	0	-0.618647	-0	3.46193	-0
3.175	0	0	0	-0.00252467	0	0.00148078	0	0	0	-192.131	1194.71	-57.6077	1.11113	0	-0.617172	-0	5.12489	-0
3.18333	0	0	0	-0.00252458	0	0.00148087	0	0	0	-236.613	1195.64	-62.6114	1.09502	0	-0.616142	-0	6.09909	-0
3.19167	0	0	0	-0.00252449	0	0.00148096	0	0	0	-263.271	1278.02	-54.1895	1.07505	0	-0.616276	-0	6.18833	-0
3.2	0	0	0	-0.0025244	0	0.00148104	0	0	0	-251.105	1428.61	-41.5771	1.04763	0	-0.617251	-0	5.48904	-0
3.20833	0	0	0	-0.0025243	0	0.00148113	0	0	0	-210.313	1584.43	-34.8072	1.01517	0	-0.618498	-0	4.29946	-0
3.21667	0	0	0	-0.00252421	0	0.00148122	0	0	0	-161.344	1705.05	-34.4049	0.982347	0	-0.619617	-0	2.96926	-0
3.225	0	0	0	-0.00252412	0	0.00148131	0	0	0	-118.395	1785.7	-34.1647	0.952122	0	-0.6203	-0	1.79604	-0
3.23333	0	0	0	-0.00252403	0	0.0014814	0	0	0	-84.5502	1827.57	-31.5598	0.924753	0	-0.620566	-0	0.99564	-0
3.24167	0	0	0	-0.00252394	0	0.00148149	0	0	0	-49.1607	1829.23	-30.2147	0.896919	0	-0.620885	-0	0.701072	-0
3.25	0	0	0	-0.00252384	0	0.00148157	0	0	0	-6.73305	1797.92	-33.0219	0.866182	0	-0.621445	-0	0.953024	-0
3.25833	0	0	0	-0.00252375	0	0.00148166	0	0	0	38.3504	1743.52	-38.332	0.833848	0	-0.621816	-0	1.68978	-0
3.26667	0	0	0	-0.00252366	0	0.00148175	0	0	0	83.813	1663.31	-43.8262	0.801641	0	-0.621511	-0	2.75389	-0
3.275	0	0	0	-0.00252357	0	0.00148184	0	0	0	135.062	1549.31	-49.8884	0.767416	0	-0.620565	-0	3.91332	-0
3.28333	0	0	0	-0.00252348	0	0.00148193	0	0	0	193.282	1404.39	-57.1593	0.728386	0	-0.619359	-0	4.89269	-0
3.29167	0	0	0	-0.00252339	0	0.00148201	0	0	0	241.044	1237.71	-63.0885	0.687612	0	-0.618154	-0	5.42444	-0
3.3	0	0	0	-0.0025233	0	0.0014821	0	0	0	260.289	1053.59	-63.1817	0.651601	0	-0.617025	-0	5.32423	-0
3.30833	0	0	0	-0.00252321	0	0.00148219	0	0	0	252.498	852.489	-55.4121	0.622387	0	-0.615849	-0	4.564	-0
3.31667	0	0	0	-0.00252312	0	0.00148227	0	0	0	227.734	642.368	-42.1461	0.596521	0	-0.614779	-0	3.29792	-0
3.325	0	0	0	-0.00252303	0	0.00148236	0	0	0	189.088	440.945	-27.445	0.570404	0	-0.614314	-0	1.81892	-0
3.33333	0	0	0	-0.00252294	0	0.00148245	0	0	0	137.101	269.821	-13.786	0.545309	0	-0.613883	-0	0.465548	-0
3.34167	0	0	0	-0.00252285	0	0.00148253	0	0	0	82.2546	146.489	-2.34385	0.533079	0	-0.610762	0	-0.478988	0
3.35	0	0	0	-0.00252276	0	0.00148262	0	0	0	39.5045	72.9489	5.14662	0.56573	0	-0.603449	0	-0.863256	0
3.35833	0	0	0	-0.00252267	0	0.0014827	0	0	0	15.2682	34.6823	7.18719	0.656584	0	-0.597086	0	-0.70251	0
3.36667	0	0	0	-0.00252258	0	0.00148279	0	0	0	6.11445	14.7226	5.07158	0.672557	0	-0.589042	0	-0.159331	0
3.375	0	0	0	-0.00252249	0	0.00148287	0	0	0	0	0	0	-0.00252261	0	0.00148258	0	0	0
3.38333	0	0	0	-0.00252241	0	0.00148296	0	0	0	0	0	0	-0.00252252	0	0.00148267	0	0	0
3.39167	-2.29715	10.2645	3.99766	1.05189	0	-0.623423	-0	1.6501	-0	0	0	0	-0.00252243	0	0.00148276	0	0	0
3.4	0	0	0	-0.00252223	0	0.00148313	0	0	0	0	0	0	-0.00252234	0	0.00148285	0	0	0
3.40833	0	0	0	-0.00252214	0	0.00148321	0	0	0	0	0	0	-0.00252226	0	0.00148294	0	0	0
3.41667	0	0	0	-0.00252206	0	0.00148329	0	0	0	0	0	0	-0.00252217	0	0.00148302	0	0	0
3.425	0	0	0	-0.00252197	0	0.00148338	0	0	0	0	0	0	-0.00252208	0	0.00148311	0	0	0
3.43333	-2.17283	10.0098	2.16072	1.05474	0	-0.606008	-0	5.24144	-0	0	0	0	-0.00252199	0	0.0014832	0	0	0
3.44167	-4.28184	19.1609	1.1588	1.13063	0	-0.616819	-0	6.68449	-0	0	0	0	-0.0025219	0	0.00148328	0	0	0
3.45	-8.32679	48.9252	-1.60406	1.1466	0	-0.624328	-0	7.99008	-0	0	0	0	-0.00252182	0	0.00148337	0	0	0
3.45833	-16.7319	140.119	-3.80584	1.16783	0	-0.629499	-0	8.75623	-0	0	0	0	-0.00252173	0	0.00148346	0	0	0
3.46667	-33.77	345.239	-2.29044	1.17633	0	-0.635092	-0	8.633	-0	0	0	0	-0.00252165	0	0.00148354	0	0	0
3.475	-65.5461	666.427	5.69948	1.17128	0	-0.639605	-0	7.47379	-0	0	0	0	-0.00252156	0	0.00148363	0	0	0
3.48333	-112.842	992.833	21.1092	1.16074	0	-0.642831	-0	5.43079	-0	0	0	0	-0.00252148	0	0.00148371	0	0	0
3.49167	-167.622	1186.25	40.6924	1.14921	0	-0.644666	-0	2.93974	-0	0	0	0	-0.00252139	0	0.00148379	0	0	0
3.5	-223.825	1255.29	56.9816	1.13603	0	-0.645151	-0	0.585712	-0	0	0	0	-0.00252131	0	0.00148388	0	0	0
3.50833	-268.116	1318.54	63.5401	1.11589	0	-0.645138	0	-1.09459	0	0	0	0	-0.00252123	0	0.00148396	0	0	0
3.51667	-272.613	1440.77	60.3647	1.08585	0	-0.645385	0	-1.77834	0	0	0	0	-0.00252114	0	0.00148404	0	0	0
3.525	-236.014	1605.18	52.6993	1.05143	0	-0.645704	0	-1.41701	0	0	0	0	-0.00252106	0	0.00148412	0	0	0
3.53333	-186.865	1762.83	45.3106	1.0198	0	-0.645512	0	-0.189998	0	0	0	0	-0.00252098	0	0.0014842	0	0	0
3.54167	-142.492	1874.78	39.078	0.991964	0	-0.644742	-0	1.59283	-0	0	0	0	-0.0025209	0	0.00148428	0	0	0
